<mxfile host="app.diagrams.net" modified="2021-02-13T18:08:26.409Z" agent="5.0 (Windows NT 10.0; Win64; x64) AppleWebKit/537.36 (KHTML, like Gecko) Chrome/88.0.4324.150 Safari/537.36" etag="A-0ymfLHZNy8BnquNW6u" version="14.2.9" type="github">
  <diagram id="sSxmI9qw81MOh57pCMDN" name="Page-1">
    <mxGraphModel dx="1072" dy="661" grid="1" gridSize="10" guides="1" tooltips="1" connect="1" arrows="1" fold="1" page="1" pageScale="1" pageWidth="827" pageHeight="1169" math="0" shadow="0">
      <root>
        <mxCell id="0" />
        <mxCell id="1" parent="0" />
      </root>
    </mxGraphModel>
  </diagram>
</mxfile>
